<svg width="16" height="16" viewBox="0 0 16 16" fill="none" xmlns="http://www.w3.org/2000/svg">
<path d="M14.611 7.73329C13.2648 4.60663 10.7324 2.66663 8 2.66663C5.26762 2.66663 2.73517 4.60663 1.38897 7.73329C1.35228 7.8174 1.33334 7.90819 1.33334 7.99996C1.33334 8.09173 1.35228 8.18251 1.38897 8.26663C2.73517 11.3933 5.26762 13.3333 8 13.3333C10.7324 13.3333 13.2648 11.3933 14.611 8.26663C14.6477 8.18251 14.6667 8.09173 14.6667 7.99996C14.6667 7.90819 14.6477 7.8174 14.611 7.73329ZM8 12C5.88741 12 3.8881 10.4733 2.73517 7.99996C3.8881 5.52663 5.88741 3.99996 8 3.99996C10.1126 3.99996 12.1119 5.52663 13.2648 7.99996C12.1119 10.4733 10.1126 12 8 12ZM8 5.33329C7.47277 5.33329 6.95738 5.48969 6.519 5.78271C6.08062 6.07572 5.73895 6.4922 5.53718 6.97947C5.33542 7.46674 5.28263 8.00292 5.38549 8.5202C5.48834 9.03748 5.74223 9.51264 6.11504 9.88558C6.48785 10.2585 6.96284 10.5125 7.47994 10.6154C7.99705 10.7183 8.53304 10.6655 9.02014 10.4636C9.50724 10.2618 9.92357 9.92001 10.2165 9.48148C10.5094 9.04295 10.6657 8.52738 10.6657 7.99996C10.6657 7.29272 10.3849 6.61444 9.88496 6.11434C9.38504 5.61424 8.707 5.33329 8 5.33329ZM8 9.33329C7.73639 9.33329 7.47869 9.25509 7.2595 9.10858C7.04031 8.96208 6.86947 8.75384 6.76859 8.5102C6.66771 8.26657 6.64132 7.99848 6.69274 7.73984C6.74417 7.4812 6.87112 7.24362 7.05752 7.05715C7.24393 6.87068 7.48142 6.74369 7.73997 6.69225C7.99852 6.6408 8.26652 6.6672 8.51007 6.76812C8.75362 6.86904 8.96179 7.03993 9.10824 7.2592C9.2547 7.47846 9.33287 7.73625 9.33287 7.99996C9.33287 8.35358 9.19244 8.69272 8.94248 8.94277C8.69252 9.19282 8.3535 9.33329 8 9.33329Z" fill="#3A3F4D"/>
</svg>
