<svg width="16" height="16" viewBox="0 0 16 16" fill="none" xmlns="http://www.w3.org/2000/svg">
<path d="M7.29333 4.05329C7.52717 4.01745 7.76343 3.99962 8 3.99996C10.12 3.99996 12.1133 5.52663 13.2733 7.99996C13.0959 8.37636 12.8955 8.74149 12.6733 9.09329C12.6028 9.2025 12.5657 9.32995 12.5667 9.45996C12.5682 9.60545 12.6172 9.74646 12.7063 9.86148C12.7954 9.97649 12.9197 10.0592 13.0602 10.097C13.2007 10.1347 13.3498 10.1255 13.4845 10.0707C13.6193 10.0158 13.7324 9.91843 13.8067 9.79329C14.1173 9.30525 14.3871 8.7924 14.6133 8.25996C14.6491 8.17678 14.6675 8.08718 14.6675 7.99663C14.6675 7.90608 14.6491 7.81648 14.6133 7.73329C13.2667 4.60663 10.7333 2.66663 8 2.66663C7.68711 2.66505 7.37472 2.69183 7.06667 2.74663C6.97912 2.76151 6.89536 2.79349 6.82017 2.84075C6.74498 2.888 6.67984 2.9496 6.62846 3.02203C6.57707 3.09446 6.54046 3.1763 6.52071 3.26288C6.50096 3.34946 6.49845 3.43908 6.51333 3.52663C6.52822 3.61418 6.5602 3.69793 6.60745 3.77312C6.6547 3.84831 6.7163 3.91346 6.78873 3.96484C6.86116 4.01622 6.943 4.05283 7.02958 4.07258C7.11616 4.09234 7.20578 4.09484 7.29333 4.07996V4.05329ZM2.47333 1.52663C2.41117 1.46447 2.33738 1.41516 2.25617 1.38152C2.17495 1.34788 2.08791 1.33057 2 1.33057C1.91209 1.33057 1.82505 1.34788 1.74383 1.38152C1.66262 1.41516 1.58882 1.46447 1.52667 1.52663C1.40113 1.65216 1.3306 1.82243 1.3306 1.99996C1.3306 2.1775 1.40113 2.34776 1.52667 2.47329L3.59333 4.53329C2.65038 5.44098 1.8999 6.52929 1.38667 7.73329C1.34996 7.8174 1.33101 7.90819 1.33101 7.99996C1.33101 8.09173 1.34996 8.18252 1.38667 8.26663C2.73333 11.3933 5.26667 13.3333 8 13.3333C9.19807 13.325 10.3678 12.9683 11.3667 12.3066L13.5267 14.4733C13.5886 14.5358 13.6624 14.5854 13.7436 14.6192C13.8249 14.6531 13.912 14.6705 14 14.6705C14.088 14.6705 14.1751 14.6531 14.2564 14.6192C14.3376 14.5854 14.4114 14.5358 14.4733 14.4733C14.5358 14.4113 14.5854 14.3376 14.6193 14.2563C14.6531 14.1751 14.6705 14.088 14.6705 14C14.6705 13.912 14.6531 13.8248 14.6193 13.7436C14.5854 13.6623 14.5358 13.5886 14.4733 13.5266L2.47333 1.52663ZM6.71333 7.65329L8.34667 9.28663C8.23399 9.31894 8.11721 9.33466 8 9.33329C7.64638 9.33329 7.30724 9.19282 7.05719 8.94277C6.80714 8.69272 6.66667 8.35358 6.66667 7.99996C6.6653 7.88275 6.68102 7.76597 6.71333 7.65329ZM8 12C5.88 12 3.88667 10.4733 2.73333 7.99996C3.16406 7.04913 3.77538 6.19101 4.53333 5.47329L5.71333 6.66663C5.43616 7.17249 5.33049 7.75459 5.41217 8.3256C5.49385 8.89661 5.75848 9.42574 6.16635 9.83361C6.57422 10.2415 7.10335 10.5061 7.67436 10.5878C8.24537 10.6695 8.82747 10.5638 9.33333 10.2866L10.3933 11.3333C9.66739 11.7605 8.84228 11.9904 8 12Z" fill="#3A3F4D"/>
</svg>
