<svg width="24" height="24" viewBox="0 0 24 24" fill="none" xmlns="http://www.w3.org/2000/svg">
<path d="M12 11.4043C11.7348 11.4043 11.4804 11.5097 11.2929 11.6972C11.1054 11.8847 11 12.1391 11 12.4043V16.4043C11 16.6695 11.1054 16.9239 11.2929 17.1114C11.4804 17.2989 11.7348 17.4043 12 17.4043C12.2652 17.4043 12.5196 17.2989 12.7071 17.1114C12.8946 16.9239 13 16.6695 13 16.4043V12.4043C13 12.1391 12.8946 11.8847 12.7071 11.6972C12.5196 11.5097 12.2652 11.4043 12 11.4043ZM12.38 7.4843C12.1365 7.38428 11.8635 7.38428 11.62 7.4843C11.4973 7.53189 11.3851 7.60326 11.29 7.6943C11.2017 7.7915 11.1306 7.90311 11.08 8.0243C11.024 8.14298 10.9966 8.27312 11 8.4043C10.9992 8.5359 11.0245 8.66637 11.0742 8.7882C11.124 8.91004 11.1973 9.02086 11.29 9.1143C11.3872 9.20263 11.4988 9.27365 11.62 9.3243C11.7715 9.38654 11.936 9.41061 12.099 9.39441C12.2619 9.37821 12.4184 9.32222 12.5547 9.23137C12.691 9.14051 12.8029 9.01758 12.8805 8.87337C12.9582 8.72916 12.9992 8.56808 13 8.4043C12.9963 8.13953 12.8927 7.88593 12.71 7.6943C12.6149 7.60326 12.5028 7.53189 12.38 7.4843ZM12 2.4043C10.0222 2.4043 8.08879 2.99079 6.4443 4.0896C4.79981 5.18842 3.51809 6.7502 2.76121 8.57746C2.00433 10.4047 1.8063 12.4154 2.19215 14.3552C2.578 16.295 3.53041 18.0768 4.92894 19.4754C6.32746 20.8739 8.10929 21.8263 10.0491 22.2122C11.9889 22.598 13.9996 22.4 15.8268 21.6431C17.6541 20.8862 19.2159 19.6045 20.3147 17.96C21.4135 16.3155 22 14.3821 22 12.4043C22 11.0911 21.7413 9.79072 21.2388 8.57746C20.7363 7.36421 19.9997 6.26181 19.0711 5.33323C18.1425 4.40464 17.0401 3.66805 15.8268 3.1655C14.6136 2.66295 13.3132 2.4043 12 2.4043ZM12 20.4043C10.4178 20.4043 8.87104 19.9351 7.55544 19.0561C6.23985 18.177 5.21447 16.9276 4.60897 15.4658C4.00347 14.004 3.84504 12.3954 4.15372 10.8436C4.4624 9.29173 5.22433 7.86626 6.34315 6.74744C7.46197 5.62862 8.88743 4.8667 10.4393 4.55801C11.9911 4.24933 13.5997 4.40776 15.0615 5.01326C16.5233 5.61876 17.7727 6.64414 18.6518 7.95973C19.5308 9.27533 20 10.822 20 12.4043C20 14.526 19.1572 16.5609 17.6569 18.0612C16.1566 19.5614 14.1217 20.4043 12 20.4043Z" fill="#3A3F4D"/>
</svg>
