<svg width="24" height="24" viewBox="0 0 24 24" fill="none" xmlns="http://www.w3.org/2000/svg">
<path d="M3.9 8H20.1C20.3387 8 20.5676 7.89464 20.7364 7.70711C20.9052 7.51957 21 7.26522 21 7C21 6.73478 20.9052 6.48043 20.7364 6.29289C20.5676 6.10536 20.3387 6 20.1 6H3.9C3.66131 6 3.43239 6.10536 3.2636 6.29289C3.09482 6.48043 3 6.73478 3 7C3 7.26522 3.09482 7.51957 3.2636 7.70711C3.43239 7.89464 3.66131 8 3.9 8ZM20.1 16H3.9C3.66131 16 3.43239 16.1054 3.2636 16.2929C3.09482 16.4804 3 16.7348 3 17C3 17.2652 3.09482 17.5196 3.2636 17.7071C3.43239 17.8946 3.66131 18 3.9 18H20.1C20.3387 18 20.5676 17.8946 20.7364 17.7071C20.9052 17.5196 21 17.2652 21 17C21 16.7348 20.9052 16.4804 20.7364 16.2929C20.5676 16.1054 20.3387 16 20.1 16ZM20.1 11H3.9C3.66131 11 3.43239 11.1054 3.2636 11.2929C3.09482 11.4804 3 11.7348 3 12C3 12.2652 3.09482 12.5196 3.2636 12.7071C3.43239 12.8946 3.66131 13 3.9 13H20.1C20.3387 13 20.5676 12.8946 20.7364 12.7071C20.9052 12.5196 21 12.2652 21 12C21 11.7348 20.9052 11.4804 20.7364 11.2929C20.5676 11.1054 20.3387 11 20.1 11Z" fill="#3A3F4D"/>
</svg>
