<svg width="16" height="16" viewBox="0 0 16 16" fill="none" xmlns="http://www.w3.org/2000/svg">
<path d="M8 6.66663C7.73629 6.66663 7.47851 6.74482 7.25924 6.89133C7.03998 7.03784 6.86908 7.24608 6.76816 7.48971C6.66724 7.73335 6.64084 8.00144 6.69229 8.26008C6.74373 8.51872 6.87072 8.7563 7.05719 8.94277C7.24366 9.12924 7.48124 9.25623 7.73988 9.30767C7.99852 9.35912 8.26661 9.33272 8.51025 9.2318C8.75388 9.13088 8.96212 8.95999 9.10863 8.74072C9.25514 8.52145 9.33333 8.26367 9.33333 7.99996C9.33333 7.64634 9.19286 7.3072 8.94281 7.05715C8.69276 6.8071 8.35362 6.66663 8 6.66663ZM3.33333 6.66663C3.06963 6.66663 2.81184 6.74482 2.59257 6.89133C2.37331 7.03784 2.20241 7.24608 2.10149 7.48971C2.00058 7.73335 1.97417 8.00144 2.02562 8.26008C2.07707 8.51872 2.20405 8.7563 2.39052 8.94277C2.57699 9.12924 2.81457 9.25623 3.07321 9.30767C3.33185 9.35912 3.59994 9.33272 3.84358 9.2318C4.08721 9.13088 4.29545 8.95999 4.44196 8.74072C4.58847 8.52145 4.66667 8.26367 4.66667 7.99996C4.66667 7.64634 4.52619 7.3072 4.27614 7.05715C4.02609 6.8071 3.68696 6.66663 3.33333 6.66663ZM12.6667 6.66663C12.403 6.66663 12.1452 6.74482 11.9259 6.89133C11.7066 7.03784 11.5357 7.24608 11.4348 7.48971C11.3339 7.73335 11.3075 8.00144 11.359 8.26008C11.4104 8.51872 11.5374 8.7563 11.7239 8.94277C11.9103 9.12924 12.1479 9.25623 12.4065 9.30767C12.6652 9.35912 12.9333 9.33272 13.1769 9.2318C13.4205 9.13088 13.6288 8.95999 13.7753 8.74072C13.9218 8.52145 14 8.26367 14 7.99996C14 7.64634 13.8595 7.3072 13.6095 7.05715C13.3594 6.8071 13.0203 6.66663 12.6667 6.66663Z" fill="#3A3F4D"/>
</svg>
