<svg width="24" height="24" viewBox="0 0 24 24" fill="none" xmlns="http://www.w3.org/2000/svg">
<path d="M19.1111 4C18.9944 3.99994 18.8787 4.02059 18.7709 4.06077C18.663 4.10096 18.565 4.15988 18.4824 4.23418C18.3999 4.30848 18.3344 4.39669 18.2897 4.49378C18.2451 4.59087 18.2222 4.69493 18.2222 4.8V5.30938C17.4725 6.14594 16.525 6.82153 15.4487 7.28697C14.3723 7.75242 13.1942 7.996 12 8H6.66667C5.95966 8.00069 5.28183 8.25377 4.7819 8.70371C4.28197 9.15365 4.00077 9.76369 4 10.4V12C4.00077 12.6363 4.28197 13.2464 4.7819 13.6963C5.28183 14.1462 5.95966 14.3993 6.66667 14.4H7.0967L4.96094 18.8851C4.9029 19.0068 4.87934 19.1395 4.89237 19.2714C4.90539 19.4032 4.95461 19.5301 5.03558 19.6406C5.11656 19.7512 5.22677 19.8419 5.35631 19.9046C5.48585 19.9673 5.63068 20.0001 5.77778 20H9.33333C9.50734 20.0001 9.67753 19.9542 9.82276 19.8679C9.96799 19.7816 10.0818 19.6589 10.1502 19.5148L12.5713 14.4304C13.6652 14.5027 14.731 14.776 15.703 15.2335C16.6749 15.6911 17.5323 16.323 18.2222 17.0905V17.6C18.2222 17.8122 18.3159 18.0157 18.4826 18.1657C18.6493 18.3157 18.8754 18.4 19.1111 18.4C19.3469 18.4 19.573 18.3157 19.7396 18.1657C19.9063 18.0157 20 17.8122 20 17.6V4.8C20.0001 4.69493 19.9771 4.59087 19.9325 4.49378C19.8878 4.39669 19.8224 4.30848 19.7398 4.23418C19.6572 4.15988 19.5592 4.10095 19.4514 4.06077C19.3435 4.02059 19.2279 3.99994 19.1111 4ZM6.66667 12.8C6.43097 12.7999 6.20497 12.7155 6.0383 12.5655C5.87164 12.4155 5.77794 12.2121 5.77778 12V10.4C5.77794 10.1879 5.87164 9.98447 6.0383 9.83447C6.20497 9.68448 6.43097 9.60014 6.66667 9.6H7.55556V12.8H6.66667ZM8.7474 18.4H7.12587L9.03038 14.4H10.6519L8.7474 18.4ZM18.2222 14.8174C16.4696 13.5179 14.2708 12.805 12 12.8H9.33333V9.59996H12C14.2709 9.59474 16.4696 8.88169 18.2222 7.58209V14.8174Z" fill="#3A3F4D"/>
</svg>
