<svg width="24" height="24" viewBox="0 0 24 24" fill="none" xmlns="http://www.w3.org/2000/svg">
<path fill-rule="evenodd" clip-rule="evenodd" d="M11.8892 2.3479C10.1879 2.3479 8.57032 3.06883 7.38809 4.32896C6.20789 5.58692 5.55506 7.28021 5.55506 9.03347C5.55506 12.2129 4.91683 14.1854 4.33133 15.3295C4.0376 15.9035 3.75271 16.2779 3.5573 16.4977C3.45933 16.6079 3.38312 16.6802 3.33852 16.7198C3.3162 16.7396 3.30174 16.7513 3.29638 16.7556L3.2957 16.7561C2.95035 17.0099 2.80468 17.4564 2.93534 17.8658C3.06764 18.2804 3.45285 18.5618 3.88801 18.5618H19.8903C20.3255 18.5618 20.7107 18.2804 20.843 17.8658C20.9736 17.4564 20.828 17.01 20.4827 16.7561L20.4819 16.7556C20.4766 16.7513 20.4621 16.7396 20.4398 16.7198C20.3952 16.6802 20.319 16.6079 20.221 16.4977C20.0256 16.2779 19.7407 15.9035 19.447 15.3295C18.8615 14.1854 18.2233 12.2129 18.2233 9.03347C18.2233 7.28021 17.5704 5.58692 16.3902 4.32896C15.208 3.06883 13.5904 2.3479 11.8892 2.3479ZM17.6666 16.2406C17.7239 16.3527 17.7815 16.4597 17.839 16.5618H5.93935C5.99681 16.4597 6.05438 16.3527 6.11174 16.2406C6.85976 14.7789 7.55506 12.4872 7.55506 9.03347C7.55506 7.77092 8.0262 6.57191 8.84667 5.69737C9.66512 4.825 10.761 4.3479 11.8892 4.3479C13.0173 4.3479 14.1132 4.825 14.9316 5.69737C15.7521 6.57191 16.2233 7.77092 16.2233 9.03347C16.2233 12.4872 16.9186 14.7789 17.6666 16.2406ZM10.9575 19.8718C10.6635 19.4042 10.0462 19.2636 9.57865 19.5576C9.11113 19.8516 8.97047 20.4689 9.26448 20.9365C9.54205 21.3779 9.9342 21.7346 10.3939 21.9788C10.8533 22.2229 11.3686 22.3488 11.889 22.3488C12.4095 22.3488 12.9248 22.2229 13.3842 21.9788C13.8439 21.7346 14.236 21.3779 14.5136 20.9365C14.8076 20.4689 14.6669 19.8516 14.1994 19.5576C13.7319 19.2636 13.1146 19.4042 12.8205 19.8718C12.7367 20.005 12.6102 20.1253 12.4458 20.2126C12.2811 20.3002 12.0888 20.3488 11.889 20.3488C11.6893 20.3488 11.497 20.3002 11.3323 20.2126C11.1679 20.1253 11.0413 20.005 10.9575 19.8718Z" fill="#3A3F4D"/>
</svg>
